# xmcd
#
# Track frame offsets: 
#        150
#        14899
#        29741
#        47957
#        60491
#        76135
#        92798
#        113402
#        134689
#        149930
#        165704
#        180461
#        199878
#        218313
#
# Disc length: 3287 seconds
#
# Revision: 2
# Processed by: cddbd v1.5.2PL0 Copyright (c) Steve Scherf et al.
# Submitted via: ExactAudioCopy v1.3
#
DISCID=cd0cd50e
DTITLE=Axelle Red - Jardin Secret
DYEAR=2006
DGENRE=Chanson
TTITLE0=Temps Pour Nous
TTITLE1=Changer Ma Vie
TTITLE2=Perles de Pluie
TTITLE3=Jure!
TTITLE4=Pas Compliquer
TTITLE5=Si Tu Savais (Janelle)
TTITLE6=Papillon
TTITLE7=Utopie
TTITLE8=Romantique À Mort
TTITLE9=Ce Dont le Monde a Besoin
TTITLE10=Naïve
TTITLE11=Jardin Secret
TTITLE12=Fruit Défendu
TTITLE13=Data Track
EXTD=
EXTT0=
EXTT1=
EXTT2=
EXTT3=
EXTT4=
EXTT5=
EXTT6=
EXTT7=
EXTT8=
EXTT9=
EXTT10=
EXTT11=
EXTT12=
EXTT13=
PLAYORDER=
